# xmcd CD database file
#
# Track frame offsets:
#	150
#	13807
#	25827
#	36755
#	57458
#	68574
#	81456
#	95118
#	107299
#	119389
#	130458
#	140135
#	148768
#	161958
#	172950
#	186618
#	199696
#	212731
#	224335
#	238100
#	248716
#	262550
#	276637
#	288156
#	299970
#	311237
#	322172
#	332998
#
# Disc length: 4624 seconds
#
# Revision: 2
# Processed by: cddbd v1.5.2PL0 Copyright (c) Steve Scherf et al.
# Submitted via: CDex 1.94
#
DISCID=d1120e1c
DTITLE=Various Artist - Chicago Bound (Chess Blues, R&B And Rock 'N' Roll) CD3
DYEAR=2014
DGENRE=Blues
TTITLE0=Muddy Waters - Rollin' And Tumblin'  Part 1
TTITLE1=Sonny Boy Williamson - Ninety Nine
TTITLE2=Howlin' Wolf - Wang-Dang-Doodle
TTITLE3=Bo Diddley - I Can Tell
TTITLE4=Earl Hooker - Frog Hop
TTITLE5=Jimmy Rogers - Rock This House
TTITLE6=John Brim - You Got Me Where You Want Me
TTITLE7=Otis Spann - I'm Leaving You
TTITLE8=Willie Nix - Truckin' Little Woman
TTITLE9=Etta James - Tough Mary
TTITLE10=Sugar Pie Desanto - Open Your Heart
TTITLE11=Bo Diddley - Gun Slinger
TTITLE12=Little Walter - Roller Coaster
TTITLE13=Billy Boy Arnold - You Got To Love Me
TTITLE14=John Brim - It Was A Dream
TTITLE15=J.B. Lenoir - Eisenhower Blues
TTITLE16=Sunnyland Slim And Muddy Waters - Johnson Machine Gun
TTITLE17=Little Milton - So Mean To Me
TTITLE18=Lowell Fulson - Check Yourself
TTITLE19=J.B. Lenoir - Give Me One More Shot
TTITLE20=Sugar Pie Desanto - I Want To Know
TTITLE21=Henry Gray - I Declare That Ain't Right
TTITLE22=Eddie Boyd - Hard Time Gettin' Started
TTITLE23=Blue Smitty - Date Bait
TTITLE24=Morris Pejoe - Tired Of Crying Over You
TTITLE25=J.B. Lenoir - She Don't Know
TTITLE26=Earl Hooker - Dynamite
TTITLE27=Willie Dixon - Walking The Blues
EXTD=YEAR: 2014
EXTT0=
EXTT1=
EXTT2=
EXTT3=
EXTT4=
EXTT5=
EXTT6=
EXTT7=
EXTT8=
EXTT9=
EXTT10=
EXTT11=
EXTT12=
EXTT13=
EXTT14=
EXTT15=
EXTT16=
EXTT17=
EXTT18=
EXTT19=
EXTT20=
EXTT21=
EXTT22=
EXTT23=
EXTT24=
EXTT25=
EXTT26=
EXTT27=
PLAYORDER=
